<?xml version="1.0" encoding="UTF-8" standalone="no"?>
<svg
   xmlns:dc="http://purl.org/dc/elements/1.1/"
   xmlns:cc="http://creativecommons.org/ns#"
   xmlns:rdf="http://www.w3.org/1999/02/22-rdf-syntax-ns#"
   xmlns:svg="http://www.w3.org/2000/svg"
   xmlns="http://www.w3.org/2000/svg"
   style="overflow:visible"
   xml:space="preserve"
   enable-background="new -395.247 -231.151 1037 227"
   overflow="visible"
   viewBox="-395.247 -231.151 946.30103 135.339"
   height="135.339"
   width="946.30103"
   id="Ebene_1"
   version="1.1"><path
     id="path11"
     d="m 314.44,-229.17 -7.393,0 c -36.227,0 -65.782,29.554 -65.782,65.688 0,36.135 29.56,65.687 65.782,65.687 l 7.393,0 c 36.228,0 65.779,-29.551 65.779,-65.687 0,-36.135 -29.562,-65.688 -65.779,-65.688 z m -1.273,108.665 -4.858,0 c -23.607,0 -42.981,-19.373 -42.981,-42.979 0,-23.604 19.38,-42.979 42.981,-42.979 l 4.858,0 c 23.704,0 42.979,19.375 42.979,42.979 0.011,23.606 -19.275,42.979 -42.979,42.979 z m -459.359,0 -4.866,0 c -23.696,0 -42.979,-19.373 -42.979,-42.979 0,-23.604 19.287,-42.979 42.979,-42.979 l 4.866,0 c 15.046,0 28.381,7.84 36.132,19.734 l 26.58,0 c -9.459,-24.784 -33.432,-42.439 -61.45,-42.439 l -7.393,0 c -36.222,0 -65.778,29.555 -65.778,65.689 0,36.134 29.557,65.687 65.778,65.687 l 7.393,0 c 30.366,0 56.044,-20.813 63.524,-48.838 l -25.318,0 c -6.578,15.314 -21.806,26.125 -39.468,26.125 z M 457.8,-229.17 l 0,21.354 33.331,0 0,110.021 26.49,0 0,-110.021 33.433,0 0,-21.354 -93.254,0 z m -71.46,21.355 0,110.021 26.49,0 0,-55.059 38.923,0 0,-21.269 -38.923,0 0,-33.694 38.923,0 0,-21.354 -65.604,0 0.191,21.355 z m -416.567,-21.271 c -0.991,-0.089 -1.979,-0.089 -2.971,-0.089 l -42.262,0 0.091,131.375 26.583,0 0,-49.557 15.588,0 c 0.992,0 1.98,0.182 2.971,0.537 10.542,3.963 17.93,28.479 17.93,49.021 l 26.491,0 c 0,-10.271 -2.881,-40.552 -18.559,-58.021 28.295,-20.46 19.735,-71.1 -25.862,-73.266 z m 0,60.287 c -0.991,0.091 -1.979,0.176 -2.971,0.176 l -15.588,0 0,-39.191 15.588,0 c 0.992,0 1.98,0.093 2.971,0.18 24.779,2.52 24.779,36.307 0,38.835 z m -218.235,71.003 26.491,0 0,-131.374 -26.491,0 0,131.374 z m -78.575,-43.065 -36.85,-88.31 -31.36,0 0,131.374 26.491,0 0,-79.564 33.158,79.561 17.208,0 33.159,-79.562 0,79.562 26.491,0 0,-131.37 -31.444,0 -36.853,88.309 z m 514.152,-53.802 c 0,-9.729 6.216,-13.153 12.884,-13.153 6.672,0 12.972,3.424 12.972,13.153 l 21.364,0 c -0.095,-13.153 -8.929,-34.777 -34.336,-34.507 -25.413,0.269 -34.241,21.262 -34.241,34.507 0,40.011 52.54,35.509 52.54,60.291 0,8.824 -9.549,15.225 -18.289,15.225 -8.737,0 -18.208,-6.397 -18.208,-15.225 l -21.355,0 c 0,22.885 13.336,36.576 39.563,36.576 26.313,0 39.552,-13.691 39.552,-36.576 -0.01,-39.75 -52.446,-36.862 -52.446,-60.291 z m -135.525,0.539 71.188,0 c 1.896,1.982 3.516,4.146 4.953,6.489 l 26.5,0 c -1.808,-4.6 -3.963,-8.923 -6.677,-12.886 l -120.736,0 c -2.704,3.963 -4.959,8.292 -6.668,12.886 l 26.484,0 c 1.444,-2.34 3.066,-4.5 4.956,-6.489 z m 32.981,-14.505 5.131,0 c 7.85,0 15.322,2.072 21.721,5.674 l 34.52,0 c -3.518,-4.86 -7.572,-9.189 -12.168,-12.886 l -93.173,0 c -4.599,3.693 -8.65,8.023 -12.166,12.886 l 34.515,0 c 6.397,-3.6 13.867,-5.674 21.62,-5.674 z m -42.35,29.83 27.213,0 c 2.795,-2.979 6.398,-5.229 10.452,-6.396 l -60.646,0 c -1.443,4.146 -2.427,8.469 -2.971,12.883 l 24.147,0 c 0.454,-2.256 0.997,-4.327 1.805,-6.487 z m 27.213,30.634 -27.213,0 c -0.808,-2.166 -1.351,-4.236 -1.798,-6.486 l -24.149,0 c 0.544,4.404 1.527,8.738 2.971,12.883 l 60.646,0 c -4.059,-1.181 -7.662,-3.431 -10.457,-6.397 z m 64.969,-21.717 c 0.172,1.083 0.271,2.159 0.354,3.242 l -23.967,0 c 0.094,0.99 0.178,2.073 0.178,3.15 0,1.086 -0.089,2.16 -0.178,3.15 l 23.967,0 c -0.09,1.084 -0.183,2.162 -0.354,3.244 l 23.961,0 c 0.273,-2.16 0.367,-4.234 0.367,-6.396 0,-2.162 -0.099,-4.235 -0.367,-6.396 l -23.961,0.006 0,0 z m -43.428,-61.269 -7.666,0 c -14.689,0 -28.381,4.773 -39.554,12.886 l 86.86,0 c -11.171,-8.112 -24.871,-12.886 -39.64,-12.886 z m 13.955,52.352 27.217,0 c 0.721,2.158 1.354,4.229 1.805,6.486 l 24.15,0 c -0.548,-4.414 -1.63,-8.736 -2.977,-12.883 l -60.732,0 c 4.142,1.169 7.75,3.42 10.537,6.397 z m -65.32,18.468 23.964,0 c -0.09,-0.992 -0.176,-2.07 -0.176,-3.148 0,-1.074 0.086,-2.162 0.176,-3.154 l -23.964,0 c 0.092,-1.081 0.177,-2.159 0.361,-3.242 l -24.057,0 c -0.185,2.161 -0.271,4.233 -0.271,6.396 0,2.156 0.093,4.229 0.271,6.398 l 24.057,0 c -0.185,-1.084 -0.27,-2.168 -0.361,-3.25 z m 43.699,64.519 7.666,0 c 14.771,0 28.469,-4.785 39.643,-12.895 l -86.863,0 c 11.173,8.11 24.864,12.895 39.554,12.895 z m 6.392,-22.527 -5.131,0 c -7.752,0 -15.229,-2.082 -21.625,-5.68 l -34.514,0 c 3.515,4.771 7.572,9.189 12.165,12.883 l 93.172,0 c 4.596,-3.691 8.643,-8.107 12.168,-12.883 l -34.517,0 c -6.395,3.598 -13.871,5.68 -21.718,5.68 z m 33.077,-14.512 -71.188,0 c -1.89,-1.975 -3.512,-4.145 -4.956,-6.488 l -26.485,0 c 1.709,4.605 3.965,8.918 6.668,12.889 l 120.737,0 c 2.714,-3.961 4.869,-8.279 6.677,-12.889 l -26.5,0 c -1.442,2.344 -3.152,4.513 -4.953,6.488 z m 9.369,-15.314 -27.217,0 c -2.792,2.967 -6.488,5.217 -10.537,6.399 l 60.732,0 c 1.347,-4.147 2.429,-8.479 2.977,-12.89 l -24.15,0 c -0.453,2.254 -1.085,4.325 -1.805,6.491 z" /></svg>